# AST/ASF file generated using VICON BodyLanguage
# -----------------------------------------------
:version 1.10
:name VICON
:units
  mass 1.0
  length 0.45
  angle deg
:documentation
   .ast/.asf automatically generated from VICON data using
   VICON BodyBuilder and BodyLanguage model FoxedUp or BRILLIANT.MOD
:root
   order TX TY TZ RX RY RZ
   axis XYZ
   position 0 0 0  
   orientation 0 0 0 
:bonedata
  begin
     id 1 
     name lhipjoint
     direction 0.711131 -0.61297 0.344326 
     length 2.29162 
     axis 0 0 0  XYZ
  end
  begin
     id 2 
     name lfemur
     direction 0.34202 -0.939693 0  
     length 6.71424  
     axis 0 0 20  XYZ
    dof rx ry rz
    limits (-160.0 20.0)
           (-70.0 70.0)
           (-60.0 70.0)
  end
  begin
     id 3 
     name ltibia
     direction 0.34202 -0.939693 0   
     length 6.7087   
     axis 0 0 20   XYZ
    dof rx
    limits (-10.0 170.0)
  end
  begin
     id 4 
     name lfoot
     direction 0.0230374 -0.0632947 0.997729   
     length 1.56743   
     axis -90 7.62852e-016 20   XYZ
    dof rx rz
    limits (-45.0 90.0)
           (-70.0 20.0)
  end
  begin
     id 5 
     name ltoes
     direction 1.53585e-011 -4.21885e-011 1   
     length 0.802914   
     axis -90 7.62852e-016 20   XYZ
    dof rx
    limits (-90.0 20.0)
  end
  begin
     id 6 
     name rhipjoint
     direction -0.733192 -0.592884 0.333043   
     length 2.36925  
     axis 0 0 0  XYZ 
  end
  begin
     id 7 
     name rfemur
     direction -0.34202 -0.939693 0   
     length 6.67027   
     axis 0 0 -20   XYZ
    dof rx ry rz
    limits (-160.0 20.0)
           (-70.0 70.0)
           (-70.0 60.0)
  end
  begin
     id 8 
     name rtibia
     direction -0.34202 -0.939693 0   
     length 6.6862   
     axis 0 0 -20   XYZ
    dof rx
    limits (-10.0 170.0)
 end
 begin
     id 9 
     name rfoot
     direction -0.0949739 -0.260939 0.960672   
     length 1.67698  
     axis -90 -7.62852e-016 -20   XYZ
    dof rx rz
    limits (-45.0 90.0)
           (-20.0 70.0)
  end
  begin
     id 10 
     name rtoes
     direction -1.5353e-011 -4.21868e-011 1   
     length 0.846298   
     axis -90 -7.62852e-016 -20   XYZ
    dof rx
    limits (-90.0 20.0)
  end
  begin
     id 11 
     name lowerback
     direction -0.0206828 0.999785 -0.00109866   
     length 2.04382   
     axis 0 0 0   XYZ
    dof rx ry rz
    limits (-20.0 45.0)
           (-30.0 30.0)
           (-30.0 30.0)
  end
  begin
     id 12 
     name upperback
     direction -0.0105003 0.999727 -0.0208904   
     length 2.04538   
     axis 0 0 0   XYZ
    dof rx ry rz
    limits (-20.0 45.0)
           (-30.0 30.0)
           (-30.0 30.0)
  end
  begin
     id 13 
     name thorax
     direction -0.000416255 0.999808 -0.0196023   
     length 2.0399   
     axis 0 0 0   XYZ
    dof rx ry rz
    limits (-20.0 45.0)
           (-30.0 30.0)
           (-30.0 30.0)
  end
  begin
     id 14 
     name lowerneck
     direction 0.0627861 0.989205 0.13241   
     length 1.46207   
     axis 0 0 0   XYZ
    dof rx ry rz
    limits (-20.0 45.0)
           (-30.0 30.0)
           (-30.0 30.0)
  end
  begin
     id 15 
     name upperneck
     direction 0.00627179 0.994526 0.104303   
     length 1.41419   
     axis 0 0 0   XYZ
    dof rx ry rz
    limits (-20.0 45.0)
           (-30.0 30.0)
           (-30.0 30.0)
  end
  begin
     id 16
     name head
     direction -0.00443838 0.999688 0.0245968  
     length 1.50718  
     axis 0 0 0   XYZ
    dof rx ry rz
    limits (-20.0 45.0)
           (-30.0 30.0)
           (-30.0 30.0)
  end
  begin
     id 17 
     name lclavicle
     direction 0.758742 0.650995 -0.0227258  
     length 2.86888  
     axis 0 0 0   XYZ
    dof ry rz
    limits (-20.0 10.0)
           (0.0 20.0)
  end
  begin
     id 18 
     name lhumerus
     direction 1 -4.48962e-011 1.06664e-027   
     length 4.65776   
     axis -180 -30 -90   XYZ
    dof rx ry rz
    limits (-60.0 90.0)
           (-90.0 90.0)
           (-90.0 90.0)
  end
  begin
     id 19
     name lradius
     direction 1 -4.48968e-011 1.40404e-026   
     length 3.55539   
     axis -180 -30 -90   XYZ
    dof rx
    limits (-10.0 170.0)
  end
  begin
     id 20
     name lwrist
     direction 1 -4.48976e-011 3.32647e-026   
     length 1.77769   
     axis -2.20186e-014 90 90   XYZ
    dof ry
    limits (-180.0 0.0)
 end
  begin
     id 21 
     name lhand
     direction 1 -4.48982e-011 6.65293e-026   
     length 0.707264   
     axis -4.24514e-014 90 90   XYZ
    dof rx rz
    limits (-90.0 90.0)
           (-45.0 45.0)
  end
  begin
     id 22 
     name lfingers
     direction 1 -4.48966e-011 1.33059e-025   
     length 0.570215   
     axis -8.49028e-014 90 90   XYZ
    dof rx
    limits (0.0 90.0)
  end
  begin
     id 23
     name lthumb
     direction 0.707107 -6.3493e-011 0.707107   
     length 0.818718   
     axis -90 45 2.85299e-015   XYZ
    dof rx rz
    limits (-45.0 45.0)
           (-45.0 45.0)
  end
  begin
     id 24 
     name rclavicle
     direction -0.870343 0.482028 -0.100759   
     length 3.2251  
     axis 0 0 0   XYZ 
    dof ry rz
    limits (-10.0 20.0)
           (-20.0 0.0)
  end
  begin
     id 25 
     name rhumerus
     direction -1 -4.48974e-011 -9.45849e-028  
     length 4.71925   
     axis -180 30 90   XYZ
    dof rx ry rz
    limits (-90.0 60.0)
           (-90.0 90.0)
           (-90.0 90.0)
  end
  begin
     id 26 
     name rradius
     direction -1 -4.48965e-011 1.17607e-026   
     length 3.5699   
     axis -180 30 90   XYZ
    dof rx
    limits (-10.0 170.0)
  end
  begin
     id 27 
     name rwrist
     direction -1 -4.48968e-011 3.32647e-026   
     length 1.78495   
     axis -2.20186e-014 -90 -90   XYZ
    dof ry
    limits (-180.0 0.0)
  end
  begin
     id 28
     name rhand
     direction -1 -4.48995e-011 6.65293e-026   
     length 0.507757   
     axis -4.24514e-014 -90 -90   XYZ
    dof rx rz
    limits (-90.0 90.0)
           (-45.0 45.0)
  end
  begin
     id 29
     name rfingers
     direction -1 -4.48864e-011 1.33059e-025   
     length 0.409367   
     axis -8.49028e-014 -90 -90   XYZ
    dof rx
    limits (0.0 90.0)
  end
  begin
     id 30
     name rthumb
     direction -0.707107 -6.3494e-011 0.707107   
     length 0.587771   
     axis -90 -45 -2.85299e-015   XYZ
    dof rx rz
    limits (-45.0 45.0)
           (-45.0 45.0)
  end
:hierarchy
  begin
    root lhipjoint rhipjoint lowerback
    lhipjoint lfemur
    lfemur ltibia
    ltibia lfoot
    lfoot ltoes
    rhipjoint rfemur
    rfemur rtibia
    rtibia rfoot
    rfoot rtoes
    lowerback upperback
    upperback thorax
    thorax lowerneck lclavicle rclavicle
    lowerneck upperneck
    upperneck head
    lclavicle lhumerus
    lhumerus lradius
    lradius lwrist
    lwrist lhand lthumb
    lhand lfingers
    rclavicle rhumerus
    rhumerus rradius
    rradius rwrist
    rwrist rhand rthumb
    rhand rfingers
  end

#!OML:ASF E:\Steps\Project 1\Capture day 1\Session 2\Subject.ASF
:FULLY-SPECIFIED
:DEGREES
17
root 16.4592 16.3559 21.5877 -154.667 -0.77891 178.417
lowerback -31.2652 -1.48912 -7.68371
upperback -1.6257 -0.048073 0.0873402
thorax 14.4731 -0.845917 4.14988
lowerneck -5.70842 -2.64452 -0.709867
upperneck 11.8414 -4.26276 3.51843
head 4.57604 -2.05835 0.945716
rclavicle 8.17502e-015 -2.98177e-014
rhumerus -33.6229 -14.6028 -81.2552
rradius 36.0284
rwrist -4.42711
rhand -10.6408 -265.343
rfingers 7.12502
rthumb -164.634 -55.9341
lclavicle 8.17502e-015 -2.98177e-014
lhumerus -26.074 -0.439752 85.319
lradius 23.8548
lwrist -0.977102
lhand -22.8179 -11.7766
lfingers 7.12502
lthumb 3.61892 18.1724
rfemur -23.8896 6.72586 19.2139
rtibia 7.75047
rfoot -17.3978 -2.15121
rtoes -13.4899
lfemur -24.5539 -8.50677 -21.7709
ltibia 8.41848
lfoot -6.99574 -0.221435
ltoes -50.0683
18
root 16.4634 16.3545 21.5868 -154.645 -0.718802 178.544
lowerback -31.3294 -1.45541 -7.5863
upperback -1.64508 -0.0510576 0.177954
thorax 14.482 -0.844918 4.19473
lowerneck -5.63957 -2.67641 -0.90642
upperneck 11.743 -4.28832 3.60644
head 4.54064 -2.07463 1.00506
rclavicle 7.97623e-015 -1.51076e-014
rhumerus -33.6435 -14.4753 -81.1441
rradius 35.9404
rwrist -4.4501
rhand -10.6386 -265.556
rfingers 7.12502
rthumb -164.631 -56.1471
lclavicle 7.97623e-015 -1.51076e-014
lhumerus -26.0756 -0.242891 85.3625
lradius 23.7206
lwrist -1.03504
lhand -22.9282 -12.1306
lfingers 7.12502
lthumb 3.51243 17.8203
rfemur -23.9878 6.78319 19.3737
rtibia 7.85943
rfoot -17.3917 -2.08452
rtoes -13.8442
lfemur -24.614 -8.63588 -21.5458
ltibia 8.49198
lfoot -7.06741 -0.0113157
ltoes -49.887
19
root 16.468 16.3557 21.595 -154.539 -0.876217 178.515
lowerback -31.3244 -1.47659 -7.61497
upperback -1.69124 -0.0802166 0.194382
thorax 14.4288 -0.859626 4.21538
lowerneck -5.74104 -2.75596 -0.908846
upperneck 11.7279 -4.38497 3.57321
head 4.55475 -2.12055 0.988315
rclavicle 3.2054e-015 2.38542e-015
rhumerus -33.6242 -14.6214 -81.0257
rradius 35.7858
rwrist -4.48462
rhand -10.686 -265.833
rfingers 7.12502
rthumb -164.677 -56.4207
lclavicle 3.2054e-015 2.38542e-015
lhumerus -26.0231 -0.258373 85.3992
lradius 23.594
lwrist -1.09681
lhand -22.9385 -12.3835
lfingers 7.12502
lthumb 3.50249 17.5675
rfemur -24.1312 6.74347 19.3682
rtibia 7.89126
rfoot -17.3466 -2.23434
rtoes -14.2947
lfemur -24.9356 -8.69842 -21.5082
ltibia 8.80557
lfoot -7.13612 -0.0295328
ltoes -50.3361
20
root 16.4695 16.3559 21.5884 -154.59 -0.812208 178.485
lowerback -31.3916 -1.41602 -7.61501
upperback -1.65655 0.0163125 0.140611
thorax 14.4862 -0.817596 4.19538
lowerneck -5.87585 -2.81067 -0.791169
upperneck 11.7387 -4.45334 3.47089
head 4.57766 -2.15088 0.931713
rclavicle 2.23633e-016 -1.39149e-015
rhumerus -33.6963 -14.8379 -80.915
rradius 35.5875
rwrist -4.45641
rhand -10.7214 -266.209
rfingers 7.12502
rthumb -164.711 -56.7938
lclavicle 2.23633e-016 -1.39149e-015
lhumerus -25.9884 -0.429807 85.3728
lradius 23.4838
lwrist -1.03515
lhand -22.8594 -12.329
lfingers 7.12502
lthumb 3.57884 17.6207
rfemur -24.0411 6.80134 19.3248
rtibia 7.88499
rfoot -17.4007 -2.22108
rtoes -14.2641
lfemur -24.8085 -8.82309 -21.5322
ltibia 8.71078
lfoot -7.09397 0.203525
ltoes -50.2732
21
root 16.4764 16.3547 21.5835 -154.648 -0.748516 178.559
lowerback -31.4007 -1.35399 -7.56658
upperback -1.64159 0.0876911 0.111455
thorax 14.4996 -0.782275 4.16667
lowerneck -5.90914 -2.84116 -0.748524
upperneck 11.7813 -4.50402 3.47722
head 4.59675 -2.17357 0.92279
rclavicle 2.23633e-015 -1.90833e-014
rhumerus -33.7862 -15.0887 -80.8227
rradius 35.3649
rwrist -4.4478
rhand -10.8148 -266.661
rfingers 7.12502
rthumb -164.801 -57.2389
lclavicle 2.23633e-015 -1.90833e-014
lhumerus -25.9997 -0.593305 85.2906
lradius 23.38
lwrist -1.00016
lhand -22.8142 -12.218
lfingers 7.12502
lthumb 3.6225 17.7309
rfemur -23.9744 7.01808 19.3874
rtibia 7.87057
rfoot -17.4138 -2.30411
rtoes -14.6149
lfemur -24.6686 -9.02139 -21.3604
ltibia 8.56912
lfoot -7.07934 0.487042
ltoes -49.9358
